# xmcd CD database file
#
# Track frame offsets:
#	183
#	14805
#	32158
#	50855
#	64863
#	78288
#	96340
#	115668
#	128848
#	142283
#	157010
#	170173
#	183108
#	193355
#	203363
#	216918
#	229700
#	240873
#	257623
#	276523
#	304865
#	317575
#
# Disc length: 4409 seconds
#
# Revision: 2
# Processed by: cddbd v1.4b41PL3 Copyright (c) Steve Scherf et al.
# Submitted via: CD2WAV32(EN) R3.17
#
DISCID=48113716
DTITLE=Marvin Gaye - The Very Best of Marvin Gaye
DYEAR=1900
DGENRE=
TTITLE0=I heard it Through the grapevine
TTITLE1=What's going on
TTITLE2=(Sexual) Healing
TTITLE3=You are everything (with Diana Ross)
TTITLE4=It takes two (with Kim Weaton)
TTITLE5=Let's get it on
TTITLE6=Abraham, Martin and John
TTITLE7=Too busy thinking about my baby
TTITLE8=How sweet it is (to be loved by you)
TTITLE9=Mercy Mercy me (The ecology)
TTITLE10=Stop, look, listen (to your heart) (with Diana Ross)
TTITLE11=You're all I need to get by (with Tammi Terrell)
TTITLE12=Ain't nothing like the real thing (with Tammi Terrell)
TTITLE13=Whereever I lay my hat (that4s my home)
TTITLE14=The onion song (with Tammi Terrell)
TTITLE15=You ain't livin' till you're lovin' (with Tammi Terrell)
TTITLE16=Good lovin' ain't easy to come by (with Tammi Terrell)
TTITLE17=That's the way love is
TTITLE18=Got to giveit up (part 1)
TTITLE19=When did you stop loving me, when did I stop loving you
TTITLE20=Can I get a witness
TTITLE21=Lucky lucky me
EXTD=
EXTT0=
EXTT1=
EXTT2=
EXTT3=
EXTT4=
EXTT5=
EXTT6=
EXTT7=
EXTT8=
EXTT9=
EXTT10=
EXTT11=
EXTT12=
EXTT13=
EXTT14=
EXTT15=
EXTT16=
EXTT17=
EXTT18=
EXTT19=
EXTT20=
EXTT21=
PLAYORDER=
